<svg width="24" height="16" viewBox="0 0 24 16" fill="none" xmlns="http://www.w3.org/2000/svg">
<path d="M10.1555 11.1C10.0022 11.1 9.8695 11.044 9.7575 10.9321C9.64567 10.82 9.58975 10.6873 9.58975 10.5338V5.57217C9.58975 5.41956 9.64567 5.28604 9.7575 5.17163C9.8695 5.05721 10.0022 5 10.1555 5H13.6375C13.9343 5 14.1832 5.10049 14.384 5.30147C14.5848 5.50245 14.6852 5.75147 14.6852 6.04852V7.00148C14.6852 7.29853 14.5848 7.54755 14.384 7.74853C14.1832 7.94951 13.9343 8.05 13.6375 8.05C13.9343 8.05 14.1832 8.15049 14.384 8.35147C14.5848 8.55245 14.6852 8.80147 14.6852 9.09852V10.0515C14.6852 10.3485 14.5848 10.5975 14.384 10.7985C14.1832 10.9995 13.9343 11.1 13.6375 11.1H10.1555ZM11.1853 7.29945H13.0898V6.59668H11.1853V7.29945ZM11.1853 9.50332H13.0898V8.80055H11.1853V9.50332ZM3.79175 11.1C3.56725 11.1 3.37917 11.0242 3.2275 10.8726C3.07583 10.7208 3 10.5325 3 10.3077V6.04852C3 5.75147 3.10042 5.50245 3.30125 5.30147C3.50208 5.10049 3.75092 5 4.04775 5H7.04775C7.34292 5 7.59042 5.10049 7.79025 5.30147C7.98992 5.50245 8.08975 5.75147 8.08975 6.04852V10.3077C8.08975 10.5365 8.01433 10.7258 7.8635 10.8756C7.71283 11.0252 7.52225 11.1 7.29175 11.1C7.06725 11.1 6.87917 11.0242 6.7275 10.8726C6.57583 10.7208 6.5 10.5325 6.5 10.3077V9.59889H4.58975V10.3077C4.58975 10.5365 4.51433 10.7258 4.3635 10.8756C4.21283 11.0252 4.02225 11.1 3.79175 11.1ZM4.58975 8.00221H6.5V6.59668H4.58975V8.00221ZM17.2273 11.1C16.9321 11.1 16.6846 10.9995 16.4848 10.7985C16.2851 10.5975 16.1852 10.3485 16.1852 10.0515V6.04852C16.1852 5.75147 16.2851 5.50245 16.4848 5.30147C16.6846 5.10049 16.9321 5 17.2273 5H20.2273C20.5241 5 20.7729 5.10049 20.9738 5.30147C21.1746 5.50245 21.275 5.75147 21.275 6.04852V6.60268C21.275 6.83168 21.1997 7.02099 21.049 7.1706C20.8983 7.32038 20.7078 7.39527 20.4773 7.39527C20.2484 7.39527 20.0592 7.31979 19.9097 7.16885C19.7601 7.01807 19.6852 6.82735 19.6852 6.59668H17.775V9.50332H19.6852C19.6852 9.27849 19.7611 9.09018 19.9128 8.93841C20.0644 8.78663 20.2536 8.71074 20.4803 8.71074C20.7068 8.71074 20.8958 8.78563 21.0475 8.9354C21.1992 9.08501 21.275 9.27432 21.275 9.50332V10.0515C21.275 10.3485 21.1746 10.5975 20.9738 10.7985C20.7729 10.9995 20.5241 11.1 20.2273 11.1H17.2273Z" fill="#E8EAED"/>
</svg>
