<svg width="24" height="24" viewBox="0 0 24 24" fill="none" xmlns="http://www.w3.org/2000/svg">
<path d="M12 9.71626L4.74576 16.9708C4.47176 17.2446 4.14501 17.3783 3.76551 17.372C3.38601 17.3657 3.05926 17.2256 2.78526 16.9518C2.51143 16.6778 2.37451 16.35 2.37451 15.9685C2.37451 15.587 2.51143 15.2593 2.78526 14.9853L10.3838 7.40001C10.6116 7.17217 10.8664 7.00226 11.1483 6.89026C11.4303 6.77826 11.7142 6.72226 12 6.72226C12.2858 6.72226 12.5698 6.77826 12.8518 6.89026C13.1336 7.00226 13.3884 7.17217 13.6163 7.40001L21.2208 15.0043C21.4946 15.2783 21.6273 15.6018 21.619 15.975C21.6107 16.3482 21.4696 16.6718 21.1958 16.9458C20.9218 17.2196 20.594 17.3565 20.2125 17.3565C19.831 17.3565 19.5033 17.2196 19.2293 16.9458L12 9.71626Z" fill="#E8EAED"/>
</svg>
