<svg width="24" height="24" viewBox="0 0 24 24" fill="none" xmlns="http://www.w3.org/2000/svg">
<path d="M12 14.2837L19.2542 7.02924C19.5282 6.75541 19.855 6.62166 20.2345 6.62799C20.614 6.63433 20.9407 6.77441 21.2147 7.04824C21.4886 7.32224 21.6255 7.64999 21.6255 8.03149C21.6255 8.41299 21.4886 8.74074 21.2147 9.01474L13.6162 16.6C13.3884 16.8278 13.1336 16.9977 12.8517 17.1097C12.5697 17.2217 12.2858 17.2777 12 17.2777C11.7142 17.2777 11.4302 17.2217 11.1482 17.1097C10.8664 16.9977 10.6116 16.8278 10.3837 16.6L2.77924 8.99574C2.5054 8.72174 2.37265 8.39816 2.38099 8.02499C2.38932 7.65183 2.5304 7.32824 2.80424 7.05424C3.07824 6.78041 3.40599 6.64349 3.78749 6.64349C4.16899 6.64349 4.49674 6.78041 4.77074 7.05424L12 14.2837Z" fill="#E8EAED"/>
</svg>
