<svg width="34" height="34" viewBox="0 0 34 34" fill="none" xmlns="http://www.w3.org/2000/svg">
<mask id="mask0_2_391" style="mask-type:alpha" maskUnits="userSpaceOnUse" x="0" y="0" width="34" height="34">
<rect width="34" height="34" fill="#D9D9D9"/>
</mask>
<g mask="url(#mask0_2_391)">
<path d="M3.01044 16.9975C3.01044 15.0616 3.37794 13.2423 4.11296 11.5394C4.84797 9.83662 5.84554 8.35537 7.10567 7.09572C8.36579 5.83607 9.84633 4.84027 11.5473 4.10832C13.2485 3.37638 15.066 3.01041 17 3.01041C20.2071 3.01041 23.0336 3.9519 25.4795 5.83489C27.9251 7.71787 29.5788 10.1233 30.4406 13.051C30.5233 13.3518 30.4927 13.6307 30.3489 13.8876C30.2051 14.1445 29.9875 14.3083 29.6962 14.3792C29.4216 14.4382 29.1701 14.3792 28.9418 14.2021C28.7133 14.025 28.5577 13.8007 28.475 13.5292C27.9556 11.7819 27.0849 10.2295 25.863 8.87187C24.6412 7.51423 23.1729 6.48124 21.4583 5.77291V6.41041C21.4583 7.24057 21.1788 7.95871 20.62 8.5648C20.0611 9.1709 19.3687 9.47395 18.5428 9.47395H15.4948V12.5134C15.4948 12.9091 15.3348 13.2399 15.0149 13.5058C14.695 13.7719 14.3335 13.9049 13.9305 13.9049H11.0146V17H13.9542C14.2297 17 14.4669 17.0993 14.6657 17.2978C14.8643 17.4967 14.9636 17.7338 14.9636 18.0094V21.4094H12.5552L5.36635 14.2198C5.24783 14.6861 5.16495 15.1499 5.11773 15.6113C5.07051 16.0727 5.0469 16.5341 5.0469 16.9957C5.0469 20.0267 6.0179 22.6533 7.95992 24.8756C9.90193 27.0981 12.3545 28.4101 15.3177 28.8114C15.5817 28.8393 15.7982 28.9665 15.9673 29.1929C16.1363 29.4193 16.2209 29.67 16.2209 29.9448C16.2209 30.2281 16.1218 30.4613 15.9237 30.6443C15.7256 30.8272 15.4823 30.8951 15.1938 30.8479C11.7347 30.3993 8.83943 28.8747 6.50783 26.2742C4.17624 23.6737 3.01044 20.5814 3.01044 16.9975ZM29.3622 29.3622L25.3584 25.4114C24.8507 25.7774 24.3067 26.0519 23.7264 26.2349C23.146 26.4179 22.5576 26.5094 21.9612 26.5094C20.3042 26.5094 18.8948 25.9284 17.7331 24.7665C16.5715 23.6048 15.9906 22.1941 15.9906 20.5342C15.9906 18.8746 16.5716 17.4634 17.7335 16.3005C18.8952 15.1377 20.3059 14.5562 21.9658 14.5562C23.6254 14.5562 25.0367 15.1401 26.1995 16.3079C27.3623 17.4755 27.9438 18.8935 27.9438 20.5618C27.9438 21.1623 27.8434 21.7517 27.6427 22.3302C27.442 22.9087 27.1705 23.4576 26.8281 23.9771L30.7966 27.9296C30.9961 28.1397 31.1018 28.3805 31.1136 28.6521C31.1254 28.9236 31.0309 29.1597 30.8302 29.3604C30.6177 29.5729 30.3698 29.6792 30.0865 29.6792C29.8031 29.6792 29.5617 29.5735 29.3622 29.3622ZM21.9555 24.4729C23.0553 24.4729 23.9889 24.0931 24.7563 23.3336C25.5236 22.5742 25.9073 21.6445 25.9073 20.5445C25.9073 19.4447 25.5263 18.5111 24.7644 17.7437C24.0025 16.9764 23.0698 16.5927 21.9665 16.5927C20.8632 16.5927 19.9307 16.9737 19.1693 17.7356C18.4078 18.4975 18.0271 19.4302 18.0271 20.5335C18.0271 21.6369 18.4069 22.5693 19.1665 23.3307C19.9258 24.0922 20.8555 24.4729 21.9555 24.4729Z" fill="white"/>
</g>
</svg>
