<svg width="24" height="24" viewBox="0 0 24 24" fill="none" xmlns="http://www.w3.org/2000/svg">
<mask id="mask0_36_79" style="mask-type:alpha" maskUnits="userSpaceOnUse" x="0" y="0" width="24" height="24">
<rect width="24" height="24" fill="#D9D9D9"/>
</mask>
<g mask="url(#mask0_36_79)">
<path d="M5.7 21.375C5.37083 21.375 5.09275 21.261 4.86575 21.033C4.63858 20.8052 4.525 20.526 4.525 20.1955C4.525 19.8652 4.63858 19.5875 4.86575 19.3625C5.09275 19.1375 5.37083 19.025 5.7 19.025H18.3C18.6272 19.025 18.9089 19.139 19.1453 19.367C19.3818 19.5948 19.5 19.874 19.5 20.2045C19.5 20.5348 19.3818 20.8125 19.1453 21.0375C18.9089 21.2625 18.6272 21.375 18.3 21.375H5.7ZM6.575 16.925C5.99733 16.925 5.48433 16.7332 5.036 16.3495C4.5875 15.9658 4.31717 15.491 4.225 14.925L3.2 8.37501C3.14267 8.40834 3.09267 8.42917 3.05 8.43751C3.00733 8.44584 2.95733 8.45001 2.9 8.45001C2.46383 8.40001 2.10067 8.21567 1.8105 7.89701C1.52017 7.57834 1.375 7.19501 1.375 6.74701C1.375 6.28101 1.53725 5.88167 1.86175 5.54901C2.18642 5.21634 2.5805 5.05001 3.044 5.05001C3.50767 5.05001 3.90792 5.21526 4.24475 5.54576C4.58158 5.87642 4.75 6.27784 4.75 6.75001C4.75 6.86751 4.73333 6.97609 4.7 7.07576C4.66667 7.17526 4.625 7.25834 4.575 7.32501L7.75 8.72501L10.95 4.30001C10.75 4.16667 10.5917 3.99317 10.475 3.77951C10.3583 3.56601 10.3 3.32284 10.3 3.05001C10.3 2.57784 10.4648 2.17642 10.7945 1.84576C11.1242 1.51526 11.5245 1.35001 11.9955 1.35001C12.4665 1.35001 12.8683 1.51526 13.201 1.84576C13.5337 2.17642 13.7 2.57784 13.7 3.05001C13.7 3.32284 13.6417 3.56601 13.525 3.77951C13.4083 3.99317 13.25 4.16667 13.05 4.30001L16.25 8.72501L19.425 7.32501C19.375 7.25834 19.3333 7.17526 19.3 7.07576C19.2667 6.97609 19.25 6.86751 19.25 6.75001C19.25 6.27784 19.4172 5.87642 19.7515 5.54576C20.0858 5.21526 20.4841 5.05001 20.9462 5.05001C21.4084 5.05001 21.8079 5.21484 22.1448 5.54451C22.4816 5.87417 22.65 6.27451 22.65 6.74551C22.65 7.19851 22.4969 7.58334 22.1908 7.90001C21.8844 8.21667 21.5125 8.40001 21.075 8.45001C21.0177 8.45001 20.9718 8.44167 20.9375 8.42501C20.9032 8.40834 20.8573 8.38334 20.8 8.35001L19.775 14.925C19.685 15.491 19.4208 15.9658 18.9825 16.3495C18.5442 16.7332 18.025 16.925 17.425 16.925H6.575ZM6.55 14.55H17.45L18.1 10.45L17.15 10.9C16.65 11.1333 16.1458 11.1792 15.6375 11.0375C15.1292 10.8958 14.7167 10.6083 14.4 10.175L12 6.82501L9.6 10.175C9.28333 10.6083 8.86667 10.8958 8.35 11.0375C7.83333 11.1792 7.33333 11.1333 6.85 10.9L5.875 10.45L6.55 14.55Z" fill="white"/>
</g>
</svg>
