<svg width="24" height="24" viewBox="0 0 24 24" fill="none" xmlns="http://www.w3.org/2000/svg">
<mask id="mask0_36_88" style="mask-type:alpha" maskUnits="userSpaceOnUse" x="0" y="0" width="24" height="24">
<rect width="24" height="24" fill="#D9D9D9"/>
</mask>
<g mask="url(#mask0_36_88)">
<path d="M4.725 21.625C4.07417 21.625 3.51975 21.3961 3.06175 20.9383C2.60392 20.4803 2.375 19.9258 2.375 19.275V4.72501C2.375 4.06734 2.60392 3.50709 3.06175 3.04426C3.51975 2.58142 4.07417 2.35001 4.725 2.35001H19.275C19.9327 2.35001 20.4929 2.58142 20.9557 3.04426C21.4186 3.50709 21.65 4.06734 21.65 4.72501V19.275C21.65 19.9258 21.4186 20.4803 20.9557 20.9383C20.4929 21.3961 19.9327 21.625 19.275 21.625H4.725ZM4.725 19.275H8.025V15.975H4.725V19.275ZM10.375 19.275H13.625V15.975H10.375V19.275ZM16 19.275H19.275V15.975H16V19.275ZM4.725 13.625H8.025V10.375H4.725V13.625ZM10.375 13.625H13.625V10.375H10.375V13.625ZM16 13.625H19.275V10.375H16V13.625ZM4.725 8.00001H8.025V4.72501H4.725V8.00001ZM10.375 8.00001H13.625V4.72501H10.375V8.00001ZM16 8.00001H19.275V4.72501H16V8.00001Z" fill="white"/>
</g>
</svg>
